<svg width="1600" height="1200" viewBox="0 0 1600 1200" fill="none" xmlns="http://www.w3.org/2000/svg">
  <rect width="1600" height="1200" fill="#020617"/>
  <rect width="1600" height="1200" fill="url(#paint0_radial)"/>
  <rect width="1600" height="1200" fill="url(#paint1_linear)"/>
  <path d="M163 914C384 687 568 600 837 565C1106 530 1310 392 1542 173" stroke="#60A5FA" stroke-opacity="0.22" stroke-width="2"/>
  <path d="M63 1014C284 787 468 700 737 665C1006 630 1210 492 1442 273" stroke="#FBBF24" stroke-opacity="0.14" stroke-width="2"/>
  <rect x="122" y="170" width="472" height="338" rx="32" fill="white" fill-opacity="0.04" stroke="white" stroke-opacity="0.08"/>
  <rect x="158" y="214" width="164" height="14" rx="7" fill="#93C5FD"/>
  <rect x="158" y="252" width="276" height="24" rx="12" fill="white" fill-opacity="0.88"/>
  <rect x="158" y="290" width="218" height="24" rx="12" fill="white" fill-opacity="0.88"/>
  <rect x="158" y="340" width="172" height="78" rx="24" fill="#2563EB"/>
  <rect x="350" y="340" width="172" height="78" rx="24" fill="#FBBF24"/>
  <circle cx="1192" cy="350" r="212" fill="#2563EB" fill-opacity="0.14"/>
  <circle cx="1288" cy="320" r="108" fill="#FBBF24" fill-opacity="0.16"/>
  <rect x="930" y="630" width="470" height="302" rx="36" fill="white" fill-opacity="0.04" stroke="white" stroke-opacity="0.08"/>
  <rect x="968" y="674" width="112" height="112" rx="24" fill="#2563EB" fill-opacity="0.2"/>
  <rect x="1106" y="674" width="256" height="18" rx="9" fill="white" fill-opacity="0.82"/>
  <rect x="1106" y="712" width="220" height="18" rx="9" fill="white" fill-opacity="0.64"/>
  <rect x="968" y="824" width="394" height="16" rx="8" fill="white" fill-opacity="0.56"/>
  <rect x="968" y="858" width="320" height="16" rx="8" fill="white" fill-opacity="0.56"/>
  <defs>
    <radialGradient id="paint0_radial" cx="0" cy="0" r="1" gradientUnits="userSpaceOnUse" gradientTransform="translate(308 172) rotate(35.1342) scale(1035.31 1126.53)">
      <stop stop-color="#1D4ED8" stop-opacity="0.42"/>
      <stop offset="1" stop-color="#020617" stop-opacity="0"/>
    </radialGradient>
    <linearGradient id="paint1_linear" x1="800" y1="0" x2="800" y2="1200" gradientUnits="userSpaceOnUse">
      <stop stop-color="#0F172A" stop-opacity="0.22"/>
      <stop offset="1" stop-color="#020617"/>
    </linearGradient>
  </defs>
</svg>
